<?xml version="1.0" encoding="UTF-8" standalone="no"?>
<!-- Created with Inkscape (http://www.inkscape.org/) -->

<svg
   width="500mm"
   height="500mm"
   viewBox="0 0 500 500"
   version="1.1"
   id="svg1"
   xml:space="preserve"
   xmlns="http://www.w3.org/2000/svg"
   xmlns:svg="http://www.w3.org/2000/svg"><defs
     id="defs1"><linearGradient
       id="swatch5"><stop
         style="stop-color:#000000;stop-opacity:1;"
         offset="0"
         id="stop5" /></linearGradient><linearGradient
       id="swatch4"><stop
         style="stop-color:#f7f3ee;stop-opacity:1;"
         offset="0"
         id="stop4" /></linearGradient></defs><g
     id="layer1"
     transform="translate(-259.4256,1093.178)"><path
       id="rect6"
       style="fill:#ece7df;stroke-width:0.888"
       d="m 284.39802,-1093.178 h 450.05515 c 13.83473,0 24.97243,12.3219 24.97243,27.6276 v 444.74485 c 0,15.30567 -11.1377,27.62757 -24.97243,27.62757 H 284.39802 c -13.83472,0 -24.97242,-12.3219 -24.97242,-27.62757 v -444.74485 c 0,-15.3057 11.1377,-27.6276 24.97242,-27.6276 z" /><path
       style="fill:#000000;stroke-width:1"
       d="m 429.07889,-688.30144 c -16.24478,-2.35756 -27.92512,-8.38542 -38.15263,-19.68937 -7.04879,-7.7907 -10.94505,-15.56589 -13.02923,-26.00049 -0.96767,-4.8447 -1.06361,-13.50354 -0.2006,-18.10202 2.57817,-13.73742 8.13373,-24.43472 17.94028,-34.54426 5.53425,-5.70524 10.93386,-9.77134 19.02447,-14.32611 2.79191,-1.57174 3.95381,-2.06733 4.05401,-1.72916 0.0772,0.26071 0.38698,2.00395 0.68833,3.87385 0.30133,1.86989 1.19576,6.17619 1.98762,9.56957 0.79185,3.39337 1.33172,6.21414 1.19969,6.26838 -0.13203,0.0542 -2.02626,1.34968 -4.20941,2.87876 -8.75112,6.12932 -14.54849,12.86766 -18.47886,21.4782 -4.8184,10.55601 -5.0502,20.80078 -0.68957,30.47842 2.90171,6.43985 6.78371,11.03339 12.95121,15.32503 6.79442,4.7279 15.15816,7.75374 26.4836,9.58128 4.85211,0.78297 24.41987,0.8728 30.06473,0.13802 11.70692,-1.52387 21.3158,-4.90783 31.34619,-11.0392 10.02166,-6.12601 17.8638,-12.76096 34.80628,-29.44833 12.11453,-11.9321 14.45663,-14.30257 14.29885,-14.47202 -0.0917,-0.0983 -2.34026,-1.32853 -4.99698,-2.73364 -2.65672,-1.40512 -9.47582,-5.52262 -15.15353,-9.14999 -20.57481,-13.14483 -32.38719,-18.39002 -47.51122,-21.09697 -5.17012,-0.92538 -15.75826,-1.90292 -18.11472,-1.67243 -0.55464,0.0542 -0.75492,-0.33546 -1.24182,-2.41633 -0.80932,-3.45882 -3.26044,-16.03027 -3.26044,-16.72237 0,-0.50861 0.52937,-0.54466 4.91369,-0.33468 7.15815,0.34282 12.38589,0.91 16.49185,1.78924 2.45906,0.52659 3.69029,0.65531 3.83851,0.40132 0.11999,-0.20566 0.27889,-12.3828 0.35308,-27.06035 l 0.13486,-26.6864 -4.78756,3.6697 c -16.03915,12.2939 -34.68281,23.0003 -55.00309,31.58629 -9.35462,3.95263 -15.30241,6.1051 -24.72918,8.94936 -15.31069,4.61956 -25.06397,6.54427 -48.14746,9.50138 -5.40505,0.69241 -10.1783,1.37902 -10.60722,1.5258 -0.6145,0.21028 -1.48455,1.84502 -4.10336,7.70986 -9.01589,20.19114 -11.84624,29.65973 -12.18381,40.7593 -0.25665,8.43889 1.10299,12.83803 5.37979,17.40641 1.94031,2.0726 2.98102,2.83915 5.85742,4.31429 4.14875,2.12764 7.56561,3.09007 13.65839,3.84714 6.64605,0.82582 5.99638,0.50399 5.99638,2.97043 v 2.11982 h -43.80682 -43.80683 v -2.08865 c 0,-2.26067 0.206,-2.51894 2.00913,-2.51894 1.71898,0 7.81638,-1.39893 11.01525,-2.52722 6.63635,-2.34078 12.57127,-6.29823 18.24423,-12.16543 9.25976,-9.57678 15.11732,-19.22133 27.40389,-45.12083 5.31813,-11.21035 6.15338,-13.18021 5.527,-13.03473 -17.2974,4.01725 -29.28154,9.70949 -39.45238,18.73921 -7.58919,6.73769 -13.2762,14.82776 -16.4636,23.42029 -1.24852,3.36576 -1.2144,2.42351 0.0437,-1.20682 3.3753,-9.73953 9.396,-18.42283 17.82361,-25.70593 8.27204,-7.14865 20.74395,-13.3434 33.1927,-16.48667 2.44816,-0.61815 5.01601,-1.27386 5.70637,-1.45712 1.24519,-0.33056 1.28845,-0.40395 5.43277,-9.21702 2.29765,-4.8861 4.08458,-8.98276 3.97092,-9.10367 -0.27551,-0.29314 -7.65017,1.71665 -12.75644,3.47646 -14.94935,5.15208 -26.90459,12.20501 -36.21381,21.36416 -6.24513,6.14443 -10.31595,11.42841 -13.99887,18.17062 -5.15735,9.44148 -7.91375,19.1516 -8.39936,29.58898 -0.22842,4.90936 -0.24873,5.02033 -0.45428,2.48101 -0.11835,-1.46202 -0.0896,-4.49239 0.0636,-6.73416 1.25642,-18.36929 9.81478,-35.11117 24.78888,-48.49198 6.92443,-6.18765 18.48568,-13.09187 28.59533,-17.07673 4.78195,-1.88488 14.4539,-4.9345 18.19162,-5.73594 l 2.14729,-0.46042 20.87328,-44.66145 c 29.49731,-63.1136 55.51018,-118.3945 56.48348,-120.0348 l 0.82854,-1.3964 6.13068,0.093 6.1307,0.093 0.1816,1.254 c 0.0999,0.6897 0.93472,10.7438 1.85519,22.3425 3.93195,49.5453 6.32827,76.7931 8.50134,96.6658 0.45269,4.1399 0.82306,7.741 0.82306,8.0024 0,0.5464 -9.95984,5.6292 -17.65109,9.008 -4.94805,2.1736 -12.68409,5.1705 -12.83946,4.9739 -0.30103,-0.3809 -3.37879,-34.9619 -4.15645,-46.7011 -0.20017,-3.0215 -0.73445,-10.5974 -1.18729,-16.8353 -0.45284,-6.238 -1.18658,-16.6623 -1.63052,-23.1653 -0.44395,-6.5029 -0.86485,-11.8849 -0.93535,-11.9599 -0.12163,-0.1294 -6.44282,13.3626 -33.14556,70.7453 -17.15528,36.8657 -23.17046,49.979 -23.00609,50.1539 0.19734,0.2099 10.93698,-1.619 18.73471,-3.1905 27.59113,-5.5606 55.67886,-15.4001 77.48277,-27.1432 10.91922,-5.8809 20.89729,-12.4899 31.7182,-21.0088 l 4.56799,-3.5962 6e-4,-29.772 6e-4,-29.772 -0.84096,1.0632 c -8.99286,11.3703 -16.65737,25.9714 -21.15617,40.303 -2.7812,8.86 -5.19514,21.098 -5.33332,27.0385 -0.0227,0.9747 -0.15566,2.2506 -0.29551,2.8354 -0.39275,1.6422 -0.39111,-3.4005 0.003,-9.0379 1.54021,-22.0356 10.84588,-45.48 25.237,-63.5815 l 2.50547,-3.1515 -0.19129,-5.7093 c -0.31584,-9.4267 -2.17983,-18.1754 -4.9254,-23.1175 -3.91274,-7.043 -10.76921,-10.7391 -22.12901,-11.9289 l -4.33033,-0.4536 v -2.1172 -2.1172 h 30.45173 30.45173 l 4.46601,11.6961 c 2.4563,6.4329 4.58805,12.0152 4.73724,12.4051 0.19696,0.5147 0.94348,0.8894 2.72615,1.3681 10.57713,2.8407 17.51715,11.4771 18.98093,23.6207 0.68727,5.7017 -0.57895,13.7799 -3.04642,19.4356 l -0.9805,2.2474 4.29911,11.2209 c 4.45969,11.64 15.44505,39.8985 22.03042,56.6705 2.08445,5.3088 3.89526,9.5354 4.02403,9.3924 0.52879,-0.5872 6.51226,-16.7443 13.6157,-36.7662 4.41655,-12.4483 12.7375,-35.6082 18.146,-50.5061 2.44155,-6.7252 8.29268,-22.9138 13.00251,-35.9745 4.70981,-13.0607 8.69062,-24.0024 8.84623,-24.315 0.25649,-0.5151 3.31756,-0.5705 32.7777,-0.5926 l 32.49479,-0.024 v 2.2305 2.2305 l -3.08147,0.2496 c -6.4363,0.5213 -12.58909,2.2421 -16.13639,4.5129 -3.82199,2.4466 -6.97163,7.2185 -8.26284,12.5187 -1.64241,6.7417 -1.62166,6.225 -1.81728,45.2554 l -0.18419,36.7492 -2.83162,2.0149 c -6.29983,4.483 -11.42089,9.9622 -15.68286,16.7799 -1.76504,2.8234 -2.93579,4.2433 -5.00343,6.0683 -4.17197,3.6823 -7.134,7.5015 -10.45434,13.4797 l -1.83942,3.3118 -0.0141,-62.7157 -0.0141,-62.7157 -0.83074,2.1266 c -0.45691,1.1696 -3.06442,8.4266 -5.79446,16.1265 -2.73002,7.7 -7.8313,21.9746 -11.33617,31.7214 -7.58621,21.0968 -17.68406,49.5769 -34.3067,96.75905 l -12.23706,34.734 h -3.26356 -3.26355 l -2.79271,-7.08856 c -1.53599,-3.89872 -7.28498,-19.00309 -12.77552,-33.56529 -10.03969,-26.6276 -12.92915,-34.2424 -18.19594,-47.9533 -1.57249,-4.0937 -3.06463,-7.9787 -3.31585,-8.6334 l -0.45677,-1.1904 -5.56625,6.1003 c -5.73551,6.2858 -11.81024,12.2413 -17.53709,17.1928 l -3.27824,2.8344 0.18195,17.5442 c 0.18328,17.6726 0.46497,23.90527 1.39878,30.94933 0.61034,4.60392 2.29789,11.90847 2.88718,12.49707 0.2326,0.23234 1.77209,0.93842 3.42109,1.56906 4.66078,1.78249 8.86777,3.73861 14.56913,6.77425 7.25489,3.86281 11.13277,6.38412 20.57627,13.37828 16.56674,12.26982 25.16327,18.12277 26.6179,18.12277 0.22676,0 1.03894,-0.45759 1.80484,-1.01688 0.7659,-0.55927 2.66679,-1.69773 4.22417,-2.52988 6.71244,-3.58664 9.99274,-4.27874 16.2649,-3.43173 6.67346,0.90121 7.64271,0.94973 11.94242,0.59784 4.99051,-0.40844 7.79589,-1.11311 11.32653,-2.84507 3.40698,-1.67132 5.22364,-2.99602 8.18993,-5.97212 3.95779,-3.97089 7.91037,-9.77007 12.22829,-17.94124 10.20962,-19.32057 13.97709,-25.8963 20.10347,-35.08848 6.70699,-10.0633 11.86516,-16.5688 19.33891,-24.3902 7.14396,-7.4762 12.78348,-12.3171 21.03696,-18.058 6.63375,-4.6142 11.61443,-7.5509 24.28918,-14.3213 6.39893,-3.4181 13.60412,-7.4624 16.01151,-8.9873 4.29107,-2.7182 9.5165,-6.6039 9.99995,-7.4362 0.13437,-0.2313 -0.78552,0.3698 -2.04421,1.3358 -5.19242,3.9848 -13.30062,8.453 -24.53598,13.5209 -6.66579,3.0068 -16.4644,8.1789 -22.22563,11.7316 -18.59386,11.4663 -32.44193,25.4482 -47.21179,47.668 -4.00765,6.02917 -12.36594,20.43005 -13.8933,23.93747 l -0.75595,1.73597 -0.20668,-4.86207 c -0.22389,-5.26705 -0.6936,-8.53669 -2.03155,-14.14142 -1.14473,-4.79535 -1.1119,-5.10845 0.34067,-3.24778 0.66115,0.84693 1.24926,1.59406 1.3069,1.66028 0.0577,0.0662 -0.16361,-0.81099 -0.49165,-1.94936 -0.32805,-1.13839 -0.69098,-2.70779 -0.80653,-3.48749 -0.38797,-2.6184 3.31233,5.71614 4.54586,10.23908 0.61602,2.25872 1.24227,4.22831 1.39168,4.37685 0.61076,0.60726 -0.25076,-4.78719 -1.35844,-8.50586 -1.15254,-3.86927 -1.18172,-4.10547 -1.01808,-8.23667 0.1767,-4.4609 0.81847,-7.2615 2.66302,-11.621 0.9047,-2.1382 3.76714,-6.9573 5.42714,-9.1369 2.04028,-2.679 3.89148,-4.7305 3.66267,-4.059 -0.70859,2.0792 -0.96715,6.3717 -0.57343,9.5192 0.42661,3.4104 1.03848,4.9389 1.03848,2.5942 0,-3.7024 2.35763,-11.7174 4.69234,-15.9521 0.76842,-1.3938 1.92749,-3.4911 2.57572,-4.6607 1.53221,-2.7646 5.32484,-7.9746 5.8051,-7.9746 0.12239,0 -0.005,0.6778 -0.28247,1.5063 -0.27778,0.8285 -0.88967,3.1012 -1.35976,5.0506 -0.76208,3.1602 -0.86811,4.3892 -0.97841,11.3417 -0.1425,8.9831 0.36325,9.4746 0.9116,0.8861 0.54179,-8.4855 1.22962,-13.9207 2.15691,-17.0438 0.78492,-2.6436 1.10968,-3.2104 3.08903,-5.3921 1.21654,-1.3408 3.1863,-3.1982 4.37724,-4.1274 2.41656,-1.8855 5.29092,-3.723 5.49095,-3.5102 0.0719,0.076 -0.30045,1.4356 -0.82748,3.0201 -1.20399,3.6199 -2.00191,7.6822 -1.98664,10.1145 l 0.0113,1.8757 1.79475,-3.9801 c 2.41309,-5.3513 4.48228,-8.565 7.70305,-11.9637 2.46676,-2.6031 7.9944,-7.1905 8.28215,-6.8735 0.0667,0.073 -0.53634,1.33 -1.34029,2.792 -2.09517,3.8102 -3.71172,8.0802 -4.82221,12.7375 -1.03321,4.3331 -1.08621,5.3874 -0.13138,2.6131 2.48704,-7.226 6.22444,-16.3116 7.4841,-18.1938 0.6462,-0.9655 3.2114,-2.7134 3.51232,-2.3932 0.0669,0.071 -0.48071,1.0791 -1.21694,2.2399 -1.67607,2.6426 -3.15009,5.6784 -4.20606,8.6628 -0.8689,2.4557 -2.48056,8.5702 -2.30746,8.7543 0.0568,0.06 0.677,-1.4449 1.3782,-3.3452 1.83762,-4.9801 5.3482,-12.9838 6.63022,-15.1161 1.0094,-1.6788 1.33028,-1.9273 3.83785,-2.9715 3.73748,-1.5565 3.96733,-1.4878 2.34177,0.7002 -0.75179,1.0118 -1.73871,2.6204 -2.19316,3.5746 -1.04545,2.195 -4.15946,10.6084 -3.99227,10.7863 0.19729,0.2099 1.41469,-2.1281 3.17154,-6.0907 1.72708,-3.8954 4.21526,-8.2443 5.63979,-9.8572 0.8013,-0.9073 2.48127,-1.605 5.22154,-2.1686 l 0.9994,-0.2056 -0.83283,0.6166 c -1.74557,1.2924 -4.13307,3.8873 -5.39844,5.8674 -1.44245,2.2572 -3.77831,7.2578 -3.51908,7.5337 0.0897,0.095 0.95104,-1.2795 1.91425,-3.0552 2.21014,-4.0743 5.16451,-8.0445 7.36054,-9.8913 2.64649,-2.2257 2.71306,-1.6906 0.14499,1.1652 -2.45325,2.728 -3.89366,5.0372 -5.34488,8.5685 -1.08399,2.6377 -0.91561,2.4368 2.3546,-2.81 1.44928,-2.3253 3.53891,-5.2238 4.64361,-6.4412 1.9828,-2.1851 2.39287,-2.414 5.67301,-3.1667 l 0.99939,-0.2293 -1.16596,0.9917 c -2.59068,2.2033 -6.22491,6.2231 -7.2315,7.9986 -1.05283,1.857 -2.22377,4.543 -1.98049,4.543 0.0686,0 0.7601,-1.0454 1.53675,-2.3231 1.41145,-2.322 8.54773,-10.5039 9.76719,-11.1983 0.54131,-0.3082 5.71503,-1.3589 6.71272,-1.3633 0.1704,-7e-4 -0.35428,0.5856 -1.16596,1.303 -2.862,2.5296 -7.99256,8.7158 -7.58665,9.1476 0.08,0.085 2.08522,-2.0199 4.45606,-4.6778 2.37082,-2.6579 4.97301,-5.2795 5.78264,-5.8258 1.3162,-0.8881 4.94594,-2.2873 5.20713,-2.0073 0.0563,0.06 -0.8473,1.2584 -2.00783,2.6626 -2.66568,3.2252 -4.48957,5.9901 -3.61748,5.4839 0.95015,-0.5516 2.83498,-2.7823 4.94204,-5.8489 1.4331,-2.0858 2.24934,-2.9304 3.28979,-3.4044 3.14044,-1.4305 3.13829,-1.2881 -0.0339,2.2442 -3.11675,3.4707 -4.30131,5.0563 -4.00939,5.3669 0.0879,0.093 1.9153,-1.9848 4.06083,-4.6186 2.14551,-2.6338 4.11436,-4.7887 4.37519,-4.7887 0.28206,0 -0.22258,0.9302 -1.24527,2.2953 -0.94573,1.2625 -2.01807,2.8175 -2.38297,3.4557 l -0.66346,1.1603 1.26163,-1.2405 c 0.69391,-0.6823 2.08596,-2.4828 3.09348,-4.0012 1.40665,-2.12 2.2073,-2.9632 3.44951,-3.6329 2.00189,-1.0793 2.04709,-1.0786 1.57491,0.024 -0.21107,0.4929 -0.47034,0.7471 -0.57614,0.5649 -0.10577,-0.1821 -0.92611,0.694 -1.82289,1.9469 -0.89677,1.2529 -1.55671,2.3565 -1.46655,2.4524 0.0901,0.096 0.82289,-0.7883 1.62827,-1.965 1.38747,-2.027 2.14399,-2.4035 1.27931,-0.6365 -0.21992,0.4494 -0.26711,0.6891 -0.10488,0.5326 0.16223,-0.1565 0.7447,-1.2628 1.29437,-2.4585 0.9308,-2.0249 2.56735,-3.8588 3.01679,-3.3807 0.10777,0.1147 -0.16261,0.8218 -0.60099,1.5712 -1.32437,2.2641 -1.42607,2.5082 -0.77369,1.8567 0.3135,-0.313 1.04669,-1.5776 1.6293,-2.8102 0.58261,-1.2326 1.26125,-2.3107 1.50806,-2.3959 0.3616,-0.1247 0.3742,0.01 0.0648,0.6837 -0.28749,0.628 -0.19107,0.5731 0.38407,-0.2183 0.42236,-0.5812 1.64752,-2.0964 2.72256,-3.3671 2.00304,-2.3675 4.3604,-5.9298 4.71855,-7.1304 0.75549,-2.5325 1.82398,2.7474 1.81446,8.966 -0.008,5.1259 -0.7418,9.7287 -1.95467,12.2581 -0.81297,1.6954 -3.33757,4.1706 -5.56055,5.4517 -1.97953,1.1407 -5.81225,2.4831 -10.4932,3.6752 l -3.47135,0.884 2.99818,-0.1596 c 4.73339,-0.252 7.95014,-1.4884 13.07542,-5.026 1.51159,-1.0434 2.74833,-1.7471 2.74833,-1.5638 0,1.5246 -3.70034,9.3905 -5.25874,11.1786 -1.16412,1.3357 -4.83799,3.8075 -7.28971,4.9045 -3.03476,1.3578 -6.09283,1.7656 -9.82759,1.3105 -7.93728,-0.9673 -9.55587,-1.0802 -11.6034,-0.8094 l -2.16535,0.2864 2.66505,0.2715 c 1.46579,0.1493 4.68883,0.5957 7.16234,0.9919 6.61798,1.0602 11.03385,0.4785 16.54279,-2.1791 l 2.16725,-1.0455 -0.67007,1.126 c -0.36855,0.6193 -1.51268,2.1282 -2.54249,3.3532 -1.68239,2.0012 -2.11177,2.3046 -4.23105,2.9895 -3.43611,1.1104 -7.44346,0.7997 -14.59775,-1.1318 -4.56281,-1.2319 -6.06265,-1.4881 -8.82799,-1.5082 -4.60545,-0.034 -5.65992,0.6412 -1.44987,0.9275 1.79045,0.1218 5.09911,0.7353 7.77937,1.4424 8.2029,2.1642 12.9025,2.4929 16.4202,1.1484 0.7946,-0.3037 1.33252,-0.3797 1.21137,-0.1712 -0.46981,0.8088 -5.46933,4.4846 -7.98291,5.8693 -5.26486,2.9004 -8.24431,3.7276 -18.88456,5.243 -3.34757,0.4768 -11.03408,2.3187 -11.42883,2.7387 -0.0713,0.076 2.15129,0.073 4.93914,-0.01 4.82351,-0.1379 7.78039,0.1286 11.82658,1.0658 l 1.76421,0.4086 -2.93018,1.5158 c -2.81889,1.4582 -6.59829,4.2533 -9.30408,6.8808 -0.70847,0.6881 -3.03194,3.3197 -5.16326,5.8481 -5.08135,6.0282 -9.60924,10.6728 -12.24115,12.5567 -4.77833,3.4204 -10.8007,5.5258 -16.95162,5.9262 -1.89211,0.1232 -3.32098,0.3325 -3.17526,0.4651 0.67806,0.6175 5.87246,1.89698 8.31305,2.04774 3.12977,0.19334 6.85718,-0.54704 9.25408,-1.83804 0.83585,-0.4502 1.51975,-0.7352 1.51975,-0.6332 0,0.102 -0.63062,1.0771 -1.4014,2.167 -2.28778,3.23494 -5.99744,6.89597 -9.5047,9.38013 -6.13421,4.34477 -10.90057,6.22995 -21.6457,8.56127 -3.25642,0.70653 -5.96459,1.33122 -6.01815,1.38821 -0.0535,0.0569 1.09759,0.17722 2.55814,0.26718 3.33581,0.20545 6.12686,1.57403 8.52843,4.1819 l 1.66565,1.80875 -1.88944,-0.91754 c -3.17259,-1.54066 -6.29326,-2.06501 -9.54767,-1.60424 -4.81879,0.68225 -7.88961,2.27544 -12.24175,6.3512 -2.49536,2.33691 -2.8313,2.82279 -4.60855,6.66579 -3.5097,7.58912 -6.68796,11.86535 -11.96026,16.09213 -6.99233,5.60571 -13.51361,7.53526 -24.7967,7.33695 -5.87601,-0.10328 -7.21277,0.0163 -5.94915,0.53221 0.25478,0.10408 0.8748,1.0841 1.37783,2.17797 0.76464,1.66281 0.88483,2.2956 0.73309,3.85987 -0.81219,8.37235 -10.18051,13.57828 -22.06236,12.25993 -3.21875,-0.35713 -5.85934,-0.96139 -11.05973,-2.53086 l -1.39891,-0.42218 -1.93241,1.9041 c -1.06283,1.04725 -5.7551,5.76131 -10.42727,10.47569 -10.79029,10.88775 -15.61671,15.50098 -21.65357,20.69707 -15.38634,13.24349 -26.96423,20.77844 -40.56817,26.40197 -9.34357,3.86239 -18.2295,6.6002 -26.05817,8.02868 -3.33629,0.60877 -5.853,0.78224 -12.65901,0.87257 -4.67217,0.062 -9.54016,-0.039 -10.81775,-0.22438 z m 146.3225,-68.19805 c 6.8579,-1.72028 11.29671,-7.28748 9.2189,-11.56242 -0.55256,-1.13683 -2.71159,-2.41412 -4.1037,-2.42776 l -0.79448,-0.008 0.87776,0.73459 c 2.28711,1.91404 0.0818,5.70778 -4.25422,7.31846 -2.60188,0.9665 -8.19406,0.80397 -11.79383,-0.34278 l -2.76772,-0.8817 -2.88617,2.34519 c -1.58739,1.28985 -2.88203,2.50467 -2.87695,2.6996 0.0101,0.40879 3.17998,1.38838 6.80127,2.10216 3.39049,0.66827 9.95782,0.68 12.57914,0.0225 z m -20.76957,-6.37775 c 2.75599,-2.42397 3.24244,-3.01264 2.48954,-3.01264 -0.91079,0 -7.54511,-4.38844 -21.44936,-14.18825 -15.73633,-11.09108 -22.37083,-15.26429 -29.81528,-18.75431 -5.05688,-2.3707 -9.99395,-4.36509 -9.99395,-4.03719 0,0.57908 3.89547,6.33938 6.08462,8.9974 4.76007,5.77959 8.47394,8.92169 16.73491,14.15849 1.64899,1.04533 6.07132,3.92018 9.82737,6.38854 3.75607,2.46837 8.47821,5.49997 10.49366,6.73692 4.17864,2.56456 11.79133,6.42274 12.40019,6.28454 0.22411,-0.0509 1.67684,-1.20894 3.2283,-2.5735 z m 21.51005,-1.44876 c 1.92179,-0.6072 3.6701,-2.15719 3.6701,-3.25382 0,-2.22718 -3.71044,-2.82655 -8.24298,-1.33154 -2.89569,0.95511 -7.58557,3.31174 -7.26641,3.6513 0.0915,0.0974 1.25757,0.46232 2.59111,0.81086 3.06455,0.80097 6.93964,0.85259 9.24818,0.12324 z m -221.72298,-48.5393 c 13.61706,-1.88329 20.58442,-3.09721 29.5116,-5.14182 9.90901,-2.26947 24.49774,-6.76243 32.43823,-9.99016 l 2.62293,-1.06619 -0.21018,-1.81811 c -0.86339,-7.46871 -1.79199,-14.43451 -1.94609,-14.59841 -0.10135,-0.1079 -3.01173,0.7549 -6.46739,1.9173 -12.95506,4.3579 -22.25774,6.8936 -35.94551,9.7979 -5.0286,1.0669 -19.05598,3.5628 -21.99437,3.91338 l -2.02022,0.24104 -3.77269,8.02492 c -4.61601,9.81878 -4.8267,10.32872 -4.26736,10.32867 0.23149,-10e-6 5.65445,-0.72385 12.05105,-1.60852 z m 284.12324,-0.85011 c 3.70495,-2.15452 6.94335,-3.12609 14.83764,-4.45146 6.46799,-1.08592 9.84374,-1.86292 8.37693,-1.92812 -1.86046,-0.0827 -11.59606,0.8208 -13.63194,1.26511 -4.39233,0.95856 -8.52297,2.97547 -11.51383,5.622 -1.4177,1.25448 -0.8358,1.10156 1.9312,-0.50753 z m 4.01233,-5.70484 c 2.8981,-1.36392 6.45679,-2.08045 12.2973,-2.476 5.45666,-0.36956 10.59583,-1.21657 12.70334,-2.09368 1.50717,-0.62727 0.91903,-0.68703 -1.79514,-0.18238 -1.37416,0.25549 -5.04694,0.5643 -8.16173,0.68625 -6.85387,0.26833 -10.24039,0.89337 -13.32527,2.45944 -3.48752,1.77049 -4.92776,3.11674 -1.7185,1.60637 z m -16.54969,-2.20353 c -0.0924,-0.24367 -0.16802,-0.0443 -0.16802,0.44304 0,0.48734 0.0755,0.68671 0.16802,0.44302 0.0924,-0.24366 0.0924,-0.64239 0,-0.88606 z m -0.56016,-2.59026 c -0.54036,-1.74201 -0.7093,-1.36964 -0.25071,0.55261 0.20633,0.8648 0.43559,1.3794 0.50949,1.14354 0.0739,-0.23586 -0.0426,-0.99912 -0.25878,-1.69615 z m 21.82654,-0.57094 c 2.22529,-0.60059 3.92938,-0.73485 10.32708,-0.81377 6.84061,-0.0844 11.23698,-0.50894 12.38173,-1.19577 0.21478,-0.12886 -3.98234,-0.22565 -9.32692,-0.21505 -9.67816,0.0191 -9.72821,0.0232 -12.38249,0.98359 -2.26819,0.82075 -6.24832,2.82794 -4.33071,2.18399 0.36644,-0.12311 1.86553,-0.5474 3.33131,-0.94299 z m -15.93683,-10.75011 -0.77942,-6.3797 -0.25552,2.3595 c -0.30131,2.7823 -0.0618,5.1063 0.92544,8.98219 0.99495,3.9059 1.02525,2.53341 0.10954,-4.96199 z m 38.5898,6.60637 c 1.02905,-0.20399 0.34627,-0.31843 -2.99819,-0.50256 -2.38189,-0.13114 -5.75486,-0.47871 -7.49547,-0.77238 -3.2419,-0.54696 -7.71337,-0.65136 -9.49425,-0.22165 -0.7036,0.16977 0.0359,0.32341 2.49848,0.51914 1.92384,0.1529 4.69717,0.48491 6.16294,0.73781 2.96995,0.51241 9.27707,0.64586 11.32649,0.23964 z m -35.62738,-9.54867 c -0.28459,-2.9004 -0.53277,-6.6147 -0.55153,-8.2541 -0.0552,-4.8197 -0.67332,-1.4464 -0.72033,3.9306 -0.03,3.4236 0.14601,5.3968 0.77427,8.6835 0.72477,3.79157 0.82396,4.07192 0.91401,2.58329 0.0555,-0.91839 -0.13184,-4.04289 -0.41642,-6.94329 z m 21.46926,2.2646 c 1.21907,-0.3336 5.36823,-0.8169 9.49427,-1.1059 4.76015,-0.3334 8.18593,-0.7534 9.77413,-1.1985 2.39,-0.6697 3.8661,-1.4195 1.88548,-0.9578 -0.54967,0.1282 -4.52226,0.3769 -8.82799,0.5527 -6.16509,0.2518 -8.3949,0.4779 -10.49366,1.0641 -2.96542,0.8283 -6.22687,2.3552 -7.49546,3.5092 -0.72112,0.656 -0.54241,0.6215 1.33253,-0.2569 1.19095,-0.5579 3.13977,-1.2811 4.3307,-1.6069 z m -19.01452,-6.1809 c -0.40508,-2.8556 -0.8317,-6.3085 -0.94801,-7.673 l -0.21149,-2.481 -0.26019,2.0051 c -0.36274,2.7955 0.6919,11.9214 1.83485,15.877 0.0308,0.1066 0.11571,-0.4205 0.18867,-1.1712 0.073,-0.7507 -0.19874,-3.7013 -0.60383,-6.5569 z m 20.84675,2.38 c 1.96912,-0.5228 4.62241,-0.7935 10.16052,-1.0368 7.02032,-0.3083 12.13642,-0.9969 13.31677,-1.7922 0.34208,-0.2305 0.0181,-0.2596 -0.99089,-0.089 -0.82449,0.1393 -4.19746,0.2288 -7.49547,0.1988 -3.298,-0.03 -7.2517,0.109 -8.78598,0.3087 -3.06927,0.3995 -8.51033,2.1157 -9.54431,3.0104 -0.65451,0.5663 -0.65447,0.5683 0.008,0.3386 0.36645,-0.127 1.86554,-0.5493 3.33132,-0.9384 z m 0.0616,-3.1679 c 3.12053,-1.2669 4.81732,-1.4838 13.76338,-1.7595 9.28256,-0.286 12.17888,-0.682 14.26468,-1.9504 0.59917,-0.3643 0.67368,-0.4846 0.22654,-0.3656 -2.52507,0.6718 -6.13144,0.9164 -12.57685,0.8528 -5.7781,-0.057 -7.92486,0.051 -9.74297,0.4916 -2.72047,0.6587 -5.76139,1.8278 -6.68256,2.5691 -0.77481,0.6235 -0.52331,0.678 0.74778,0.162 z m -195.27681,-8.2443 c 15.89791,-10.0539 30.17343,-21.8341 42.99358,-35.4782 3.85844,-4.1064 7.57537,-8.209 8.25985,-9.1169 l 1.2445,-1.6507 -1.82217,-4.729 c -1.00219,-2.601 -2.13589,-5.5066 -2.51934,-6.4569 l -0.69718,-1.7279 -0.97563,1.4329 c -1.36588,2.0061 -6.51466,7.7503 -11.25926,12.5613 -12.46087,12.6351 -29.87299,25.8829 -45.55143,34.6571 -2.19867,1.2304 -4.06243,2.2933 -4.1417,2.3618 -0.14989,0.1297 1.64281,14.9974 1.85836,15.4124 0.15961,0.3073 5.50826,-2.7745 12.61042,-7.2659 z m 181.46686,-4.6661 c 0.13674,-5.6862 0.11722,-5.9355 -0.34758,-4.4303 -0.57225,1.8533 -0.94861,12.5646 -0.5333,15.1784 0.25301,1.5923 0.27249,1.5326 0.49963,-1.5329 0.13,-1.7545 0.30156,-5.9013 0.38125,-9.2152 z m 18.9119,8.1237 c 1.58825,-0.426 4.69578,-0.6551 11.65961,-0.8596 9.33243,-0.2741 10.72266,-0.4495 13.78789,-1.7397 1.51108,-0.636 0.90065,-0.709 -1.462,-0.1749 -1.57837,0.3569 -4.42302,0.4676 -10.49366,0.4086 -7.66639,-0.075 -8.54011,-0.019 -10.99335,0.6934 -2.67045,0.776 -5.82981,2.1036 -5.82981,2.4497 0,0.1015 0.26235,0.099 0.58298,-0.01 0.32064,-0.1048 1.5574,-0.4519 2.74834,-0.7714 z m -15.81485,-10.9591 c 0.10778,-8.1379 0.0808,-8.6728 -0.33055,-6.5573 -0.52306,2.6901 -0.69487,6.8566 -0.54809,13.2914 0.17626,7.7273 0.74485,3.3694 0.87864,-6.7341 z m 19.31274,6.6767 c 1.9318,-0.5046 3.73627,-0.5965 10.51661,-0.5354 8.47567,0.076 11.80353,-0.2733 14.31533,-1.5044 1.12564,-0.5517 1.12919,-0.5599 0.15294,-0.3546 -3.01059,0.6329 -6.81909,0.7738 -11.82617,0.4373 -4.0754,-0.2738 -6.22886,-0.2612 -8.3283,0.048 -2.8879,0.4262 -7.56026,1.8925 -8.16173,2.5613 -0.22875,0.2544 -0.12439,0.3055 0.33313,0.1633 0.36644,-0.1138 1.71562,-0.4811 2.99819,-0.8161 z m 3.16475,-4.0544 c 1.6404,-0.4732 6.02053,-0.5653 14.99094,-0.3151 4.9507,0.1382 6.15632,0.065 7.99515,-0.4844 2.1167,-0.6325 4.13074,-1.5978 2.33193,-1.1176 -2.00063,0.534 -7.21749,0.6065 -12.56862,0.1747 -6.38209,-0.515 -9.51247,-0.2415 -13.05593,1.1407 -1.83773,0.7169 -3.21687,1.6296 -1.85883,1.2302 0.36644,-0.1079 1.34086,-0.3906 2.16536,-0.6285 z m -14.66181,-8.8248 c 0.81004,-7.8965 1.40726,-11.6249 2.31243,-14.4364 0.5166,-1.6046 0.82759,-2.8441 0.69111,-2.7543 -0.58127,0.3822 -2.71581,5.5806 -3.35608,8.1733 -0.56146,2.2736 -0.72051,4.178 -0.82708,9.9034 -0.12427,6.6754 -0.10488,6.9647 0.33296,4.9621 0.2557,-1.1697 0.63668,-3.8013 0.84666,-5.8481 z m 2.98923,2.535 c 0.38893,-1.6207 0.92722,-5.2864 1.19617,-8.1459 0.48615,-5.1688 1.39714,-10.0061 2.33333,-12.39 0.93508,-2.381 0.15499,-1.5821 -1.00078,1.025 -1.92232,4.3361 -2.29472,6.4489 -3.14835,17.8619 -0.17496,2.3393 -0.41533,4.5722 -0.53417,4.9621 -0.16929,0.5554 -0.14433,0.5924 0.11533,0.1712 0.18225,-0.2956 0.64958,-1.8636 1.03851,-3.4843 z m 20.50057,2.3006 c 2.19867,-0.015 6.47108,0.1097 9.49426,0.2762 5.48893,0.3024 9.48016,-0.034 10.6689,-0.8988 0.34791,-0.2532 0.15119,-0.2835 -0.67495,-0.104 -1.91637,0.4163 -7.91356,0.2321 -11.80088,-0.3625 -6.27455,-0.9597 -10.85333,-0.5823 -14.59982,1.2034 -0.8703,0.4148 -1.58238,0.7993 -1.58238,0.8544 0,0.055 1.0119,-0.1342 2.24865,-0.4209 1.23675,-0.2867 4.04755,-0.5332 6.24622,-0.5478 z m 21.9867,-3.1745 1.33253,-0.5725 -1.83222,0.2531 c -2.9117,0.4024 -7.51369,0.2171 -11.65962,-0.4694 -4.33285,-0.7175 -9.18931,-0.8158 -11.14119,-0.2256 -0.72259,0.2186 -1.35568,0.3528 -1.40688,0.2983 -0.21922,-0.2332 3.56162,-2.9518 6.03184,-4.3371 3.66947,-2.0578 5.289,-2.5779 10.51381,-3.3764 6.10295,-0.9328 6.20899,-1.0239 0.9994,-0.8586 -4.57006,0.1449 -6.57545,0.546 -9.41754,1.8836 -2.28664,1.0761 -6.14201,4.0037 -8.07189,6.1293 -1.40629,1.5489 -1.53598,1.797 -0.83283,1.5933 1.89487,-0.5491 7.5841,-0.5878 10.8268,-0.074 4.42891,0.7021 12.77891,0.563 14.65779,-0.2443 z m -31.95973,-12.4464 c 0.61861,-2.9623 1.42307,-6.4057 1.7877,-7.6522 0.36461,-1.2464 0.61564,-2.3165 0.55781,-2.378 -0.21071,-0.2242 -2.17366,4.834 -2.66217,6.8599 -0.27612,1.1452 -0.73893,3.6771 -1.02843,5.6265 -0.28951,1.9493 -0.60268,3.8633 -0.69595,4.2531 -0.10123,0.4233 0.0491,0.2996 0.37337,-0.3073 0.29861,-0.5589 1.04906,-3.4398 1.66767,-6.402 z m 18.65727,2.4692 c 2.68353,-0.8471 7.69276,-1.3018 12.1365,-1.1017 4.11363,0.1852 4.14596,0.1807 2.66506,-0.3757 -0.87017,-0.327 -3.10998,-0.6383 -5.33871,-0.7422 -4.2102,-0.1962 -6.70741,0.2711 -9.81214,1.8362 -1.9743,0.9952 -1.88818,1.0897 0.34929,0.3834 z m -14.3406,-8.4307 c 1.04345,-3.3626 2.33208,-7.1359 2.86361,-8.385 0.53153,-1.2491 0.90942,-2.3318 0.83976,-2.4059 -0.24758,-0.2634 -2.20715,3.3287 -3.16733,5.806 -1.22562,3.1622 -3.09045,11.0988 -2.60783,11.0988 0.0961,0 1.02834,-2.7513 2.07179,-6.1139 z m 36.47105,5.0006 c -3.79872,-1.6399 -11.43021,-2.5371 -14.68408,-1.7264 -3.17083,0.79 -2.91485,1.0476 0.85911,0.8646 2.59636,-0.1259 4.97528,0.018 8.16173,0.4945 2.47351,0.3697 4.94701,0.6845 5.49668,0.6995 0.99657,0.027 0.99704,0.026 0.16656,-0.3322 z m 11.15991,-2.0766 c -0.11319,-0.1949 -0.5426,-0.3544 -0.95415,-0.3544 -0.41155,0 -2.79732,-0.4765 -5.3017,-1.0589 -6.57991,-1.5301 -10.27857,-1.9338 -13.23927,-1.445 -3.74403,0.618 -3.60742,0.905 0.45313,0.952 2.22302,0.026 5.86108,0.4136 9.04804,0.9649 7.58017,1.311 10.36082,1.573 9.99395,0.9414 z m -30.84725,-19.6153 c 1.45695,-2.0521 1.56896,-2.3096 0.72752,-1.6721 -1.72783,1.309 -3.36748,3.6392 -4.88068,6.9363 -1.26674,2.76 -3.5282,9.133 -3.44968,9.7215 0.0146,0.1095 1.34379,-2.6716 2.95367,-6.1804 1.60989,-3.5089 3.70202,-7.4713 4.64917,-8.8053 z m 43.4206,7.7549 c 1.23542,-0.2786 2.46052,-0.6347 2.72243,-0.7913 0.26191,-0.1567 -3.69672,-0.2849 -8.79698,-0.2849 -5.10025,0 -9.36367,0.096 -9.47427,0.2131 -0.11055,0.1172 1.03833,0.3328 2.55316,0.4792 1.51484,0.1464 3.65372,0.3859 4.75306,0.5323 3.27057,0.4354 5.8598,0.3888 8.2426,-0.1484 z m -235.98718,-8.5513 c 6.6997,-6.9235 11.2242,-12.3171 11.57311,-13.7961 0.15418,-0.6535 -1.59621,-5.648 -6.79879,-19.3993 -3.85354,-10.1855 -7.3124,-19.3481 -7.68637,-20.3613 l -0.67995,-1.8423 3.12674,-2.4523 c 3.39042,-2.659 8.42738,-5.5494 11.7946,-6.7681 6.02823,-2.1817 12.53022,-2.4416 16.80358,-0.6715 1.19457,0.4949 1.3622,0.8594 6.3369,13.78 6.47944,16.8289 6.60437,17.1457 6.88478,17.4623 0.14562,0.1644 0.58968,-0.6251 0.98682,-1.7544 1.33144,-3.7861 1.78834,-6.5441 1.81395,-10.9495 0.0351,-6.038 -1.05728,-9.6938 -4.24452,-14.2048 -2.73662,-3.8733 -6.80659,-6.7028 -11.4643,-7.9702 -2.85418,-0.7766 -8.26238,-0.9252 -11.14157,-0.306 -7.26697,1.5627 -14.23398,5.6825 -21.66996,12.8142 l -2.58177,2.4761 v 30.2661 c 0,16.6464 0.1284,30.2661 0.28534,30.2661 0.15695,0 3.15458,-2.965 6.66141,-6.589 z m 239.07106,4.2526 c 2.1412,-0.5384 6.79371,-2.8508 8.16172,-4.0566 0.71117,-0.6268 0.58014,-0.6024 -0.89697,0.1669 -0.95138,0.4956 -2.98606,1.2883 -4.52151,1.7617 -2.525,0.7785 -4.47989,1.0532 -13.07033,1.8369 -3.14185,0.2866 -3.0027,0.399 1.00066,0.8081 3.49049,0.3566 6.51978,0.1887 9.32643,-0.517 z m -24.98489,-8.4536 c 2.94458,-2.6041 3.19083,-2.8679 2.16536,-2.3201 -3.06676,1.6383 -7.70345,6.1809 -9.09898,8.9142 -0.42876,0.8398 0.15142,0.3538 1.99879,-1.6742 1.4316,-1.5717 3.65227,-3.7856 4.93483,-4.9199 z m 6.3295,-0.9317 4.33072,-4.6798 -2.69317,2.1467 c -2.56514,2.0447 -5.00253,4.6222 -6.53238,6.9081 -1.38662,2.0718 0.43834,0.4407 4.89483,-4.375 z m 22.31984,0.4815 c 1.76257,-0.7751 5.49667,-3.382 5.49667,-3.8375 0,-0.093 -0.78703,0.2935 -1.74894,0.8584 -0.96193,0.565 -3.54785,1.7845 -5.74652,2.7101 -2.19867,0.9256 -4.12964,1.8094 -4.29104,1.964 -0.51373,0.4921 4.21266,-0.7816 6.28983,-1.695 z m 2.35617,-4.2224 c 1.3422,-0.6938 2.99087,-1.913 3.83101,-2.8331 l 1.47484,-1.6151 -1.99879,1.4058 c -1.09933,0.7733 -3.19806,2.1534 -4.66384,3.067 -2.97402,1.8537 -2.25143,1.8406 1.35678,-0.024 z m -4.47904,-1.4613 c 0.41437,-0.5622 0.40259,-0.5747 -0.12579,-0.1339 -0.55491,0.463 -0.73138,0.7541 -0.45721,0.7541 0.0691,0 0.33152,-0.2791 0.58298,-0.6202 z m 6.64874,-3.0282 c 0.89608,-0.9345 1.80103,-2.051 2.011,-2.481 0.20996,-0.4301 -0.87511,0.4867 -2.41129,2.0374 -1.53618,1.5506 -2.94296,2.9688 -3.12619,3.1516 -0.18323,0.1827 0.1687,0.031 0.78204,-0.3383 0.61335,-0.3689 1.84835,-1.4352 2.74444,-2.3697 z m -253.13785,-46.0404 c 0.43023,-0.6893 0.4146,-1.0192 -0.13761,-2.9069 -0.34259,-1.1711 -0.6926,-2.2035 -0.77779,-2.2941 -0.0852,-0.091 -0.15488,1.2175 -0.15488,2.9069 0,3.1584 0.22711,3.6452 1.07028,2.2941 z m -25.8886,231.01503 c -6.89815,-1.40668 -13.49506,-5.54797 -18.21694,-11.43589 -2.34137,-2.91958 -6.22417,-9.21074 -8.38581,-13.58726 -4.90334,-9.9274 -11.18442,-30.65828 -14.67986,-48.45128 -1.06737,-5.43323 -3.26901,-18.92476 -3.11502,-19.08859 0.0633,-0.0674 2.65808,-1.1836 5.76606,-2.48044 6.71085,-2.80016 13.45918,-5.98646 19.50169,-9.20794 3.09465,-1.64983 4.47282,-2.22143 4.64441,-1.92603 0.13418,0.231 0.33465,1.2404 0.44547,2.24304 0.22918,2.07346 4.10993,25.42313 5.33951,32.12665 2.21344,12.06749 5.00769,23.30588 7.73499,31.10979 2.56851,7.34953 5.45135,11.88024 8.29429,13.03537 6.2719,2.54839 10.15815,-5.16194 11.1747,-22.17059 0.20388,-3.41137 0.44361,-6.73741 0.53272,-7.39119 l 0.16204,-1.1887 1.56078,0.24837 c 1.78656,0.2843 8.76955,2.37562 10.4983,3.1441 l 1.15812,0.51483 0.28229,3.13377 c 0.50359,5.59022 0.31391,18.29988 -0.33615,22.52326 -1.53864,9.99667 -4.34316,16.6599 -9.20894,21.87949 -2.88816,3.09819 -5.72792,4.97587 -9.49425,6.27771 -2.18157,0.75406 -3.45072,0.94347 -6.99576,1.04412 -2.72365,0.0773 -5.19607,-0.0536 -6.66264,-0.35259 z m 128.82281,-3.84604 0.0992,-2.21517 3.49788,-0.2441 c 7.3287,-0.51143 13.56824,-2.07778 16.64537,-4.17861 5.20667,-3.5547 8.78143,-10.84262 10.00009,-20.38731 0.19911,-1.55948 0.45167,-6.82276 0.56122,-11.69615 l 0.1992,-8.86071 1.97945,-2.481 c 2.56473,-3.2146 5.18357,-7.3987 7.26993,-11.61516 2.41244,-4.87542 4.99913,-7.18803 9.76843,-8.73339 3.24747,-1.05222 5.9264,-0.9731 9.11643,0.26924 2.44986,0.9541 7.01067,3.6376 7.4638,4.39155 0.1147,0.19088 0.29137,8.424 0.39257,18.29584 0.18557,18.10211 0.36311,21.07494 1.59053,26.63228 1.51462,6.85775 5.30452,12.45376 10.06062,14.85512 3.99087,2.015 11.24161,3.57179 16.64687,3.57418 l 2.24863,9.9e-4 v 2.3038 2.30379 h -48.81968 -48.81971 z"
       id="path5-8" /></g></svg>
